<svg width="64" height="65" viewBox="0 0 64 65" fill="none" xmlns="http://www.w3.org/2000/svg">
<path d="M24.299 22.35C22.9204 22.75 22.0399 23.9325 21.9955 25.4172V25.4972L20.8392 35.4457C23.8455 31.445 28.764 24.9371 32.8642 19.7984L24.299 22.3589V22.35ZM34.6698 19.2294C34.6698 19.2294 34.652 19.2472 34.6431 19.2561C34.6431 19.2561 34.6431 19.2472 34.6609 19.2294H34.6698ZM11.4469 41.1801L7.41777 41.6958C6.53724 41.8025 5.86128 42.3892 5.63892 43.2249L0 64.5L21.2839 58.8634C22.1022 58.6323 22.6892 57.9566 22.796 57.0853L23.3118 53.0668L7.14205 57.3431L11.4291 41.189L11.4469 41.1801ZM18.162 40.3089L13.6259 40.8956L10.0238 54.4626L23.5964 50.8708L24.1746 46.3366L15.974 48.497L18.1531 40.3089H18.162ZM39.0991 42.5137C40.5933 42.4781 41.7585 41.598 42.1498 40.2199L44.7203 31.6495C39.4104 35.8814 32.8731 40.8156 29.0575 43.6606L39.0991 42.5137ZM63.8073 0.959334C63.7896 0.870428 63.754 0.817065 63.7362 0.772613C63.7006 0.754832 63.6472 0.737044 63.5672 0.710372C61.477 0.0880346 54.9309 0.568161 48.02 6.02695C45.8054 7.78728 41.9542 12.0014 36.5732 18.5448C31.8681 24.2703 20.4923 39.4287 20.4923 39.4287L19.3895 43.625L53.072 9.94766C53.4811 9.53869 54.1393 9.53869 54.5484 9.94766C54.9575 10.3566 54.9575 11.0146 54.5484 11.4235L20.8659 45.092L24.9217 44.0785C24.9217 44.0785 39.4282 33.2587 45.9566 27.9066C52.5294 22.51 56.7364 18.6604 58.4708 16.4644C63.9319 9.56538 64.4121 3.03081 63.7895 0.941535L63.8073 0.959334Z" fill="url(#paint0_linear_712_951)"/>
<defs>
<linearGradient id="paint0_linear_712_951" x1="64" y1="0.5" x2="0" y2="64.5" gradientUnits="userSpaceOnUse">
<stop stop-color="#00EEFA"/>
<stop offset="0.45" stop-color="#0096FF"/>
<stop offset="1" stop-color="#AD98F6"/>
</linearGradient>
</defs>
</svg>
